<svg xmlns="http://www.w3.org/2000/svg" xmlns:xlink="http://www.w3.org/1999/xlink" width="187" height="187" viewBox="0 0 187 187">
  <defs>
    <clipPath id="clip-path">
      <rect id="Ret창ngulo_3321" data-name="Ret창ngulo 3321" width="81.709" height="93.898" fill="#de1e26"/>
    </clipPath>
  </defs>
  <g id="Grupo_3656" data-name="Grupo 3656" transform="translate(-966 -762)">
    <rect id="Ret창ngulo_2963" data-name="Ret창ngulo 2963" width="187" height="187" transform="translate(966 762)" fill="none"/>
    <g id="Grupo_3644" data-name="Grupo 3644" transform="translate(1019.145 808.957)">
      <g id="Grupo_3643" data-name="Grupo 3643" clip-path="url(#clip-path)">
        <path id="Caminho_13187" data-name="Caminho 13187" d="M80.98,22.941,41.584.2a1.457,1.457,0,0,0-1.459,0L.73,22.941A1.46,1.46,0,0,0,0,24.2v45.49a1.46,1.46,0,0,0,.73,1.264L40.125,93.7a1.459,1.459,0,0,0,1.459,0l39.4-22.745a1.46,1.46,0,0,0,.73-1.264V24.2a1.46,1.46,0,0,0-.73-1.264M40.855,3.144,78.528,24.9,61.309,34.837c-.151-.239-.306-.473-.471-.694q-2.993-4.023-9.631-4.023H40.595V46.5l-4.463-2.577c.046-.058.094-.111.139-.17a9.217,9.217,0,0,0,1.659-5.683,9.259,9.259,0,0,0-.729-3.8,7.734,7.734,0,0,0-2.012-2.741A8.467,8.467,0,0,0,32.1,29.868a13.387,13.387,0,0,0-3.923-.553,13.061,13.061,0,0,0-4.149.628,8.114,8.114,0,0,0-3.219,1.962,8.577,8.577,0,0,0-1.593,2.246L3.181,24.9Zm15.231,42.91v4.039a34.4,34.4,0,0,1-.3,4.923A10.481,10.481,0,0,1,54.8,58.35a4.282,4.282,0,0,1-1.785,1.868A5.793,5.793,0,0,1,50.3,60.8H47.837V43.738l7.469-4.313a22.566,22.566,0,0,1,.779,6.63m-8.248-3.441V35.451H50.3a4.712,4.712,0,0,1,4.35,2.449,6.409,6.409,0,0,1,.306.6ZM30.649,40.754l-6.077-3.509q.568-2.95,3.049-2.951a2.637,2.637,0,0,1,2.364,1.132,7.254,7.254,0,0,1,.754,3.847,11.9,11.9,0,0,1-.089,1.48M2.918,68.852V25.867l15.9,9.18c-.023.061-.052.116-.075.178a12.286,12.286,0,0,0-.628,4.7l6.336.654a15.723,15.723,0,0,1-.013-2.289l6.022,3.477a5.386,5.386,0,0,1-.653,1.578,3.655,3.655,0,0,1-3.344,1.459H23.748v4.778h3.017q2.615,0,3.521,1.685a10.2,10.2,0,0,1,.905,4.753q0,5.935-3.42,5.935a2.969,2.969,0,0,1-2.64-1.308,6.483,6.483,0,0,1-.93-3.52,14.6,14.6,0,0,1,.3-2.967l-6.74,1.308a5.35,5.35,0,0,0-.1.93v.679a11.092,11.092,0,0,0,.88,4.7,8.132,8.132,0,0,0,2.363,3.043,9.02,9.02,0,0,0,3.37,1.635,15.826,15.826,0,0,0,3.9.478q5.18,0,7.821-2.892t2.64-8.072a9.493,9.493,0,0,0-1.811-6.211,8.243,8.243,0,0,0-5.029-2.791v-.3a7.865,7.865,0,0,0,3.673-2.007l4.9,2.83V90.474ZM41.341,90.474V66.129h9.866q6.639,0,9.631-4.049T63.83,50.086V46.113q0-6.551-2.036-10.433l17-9.813V68.852Z" transform="translate(0 0)" fill="#de1e26"/>
      </g>
    </g>
  </g>
</svg>
