<?xml version="1.0" encoding="utf-8"?>
<!-- Generator: Adobe Illustrator 28.2.0, SVG Export Plug-In . SVG Version: 6.00 Build 0)  -->
<svg version="1.1" id="Camada_1" xmlns="http://www.w3.org/2000/svg" xmlns:xlink="http://www.w3.org/1999/xlink" x="0px" y="0px"
	 viewBox="0 0 220.7 55" style="enable-background:new 0 0 220.7 55;" xml:space="preserve">
<style type="text/css">
	.st0{clip-path:url(#SVGID_00000139996783587122023770000002644228361716692913_);fill:#FFFFFF;}
</style>
<g>
	<defs>
		<rect id="SVGID_1_" width="220.7" height="55"/>
	</defs>
	<clipPath id="SVGID_00000074431096800011698440000010643610403652516763_">
		<use xlink:href="#SVGID_1_"  style="overflow:visible;"/>
	</clipPath>
	<path id="Caminho_360" style="clip-path:url(#SVGID_00000074431096800011698440000010643610403652516763_);fill:#FFFFFF;" d="M0,55
		h31.2l27.6-26.3c4.4-4.7,10.6-7.5,17.1-7.6h84.9l21.2-21H76.2c0,0-18.2-0.8-29.3,9.3S0,55,0,55"/>
	<path id="Caminho_361" style="clip-path:url(#SVGID_00000074431096800011698440000010643610403652516763_);fill:#FFFFFF;" d="
		M36.8,55h28.9l8-7.9c2.8-2.5,6.3-3.9,10-3.9h54.7l19.3-19.3H80c0,0-10.3-0.4-16.6,5.3S36.8,55,36.8,55"/>
	<path id="Caminho_362" style="clip-path:url(#SVGID_00000074431096800011698440000010643610403652516763_);fill:#FFFFFF;" d="
		M165.9,54.9h-34.2L186.5,0h34.2L165.9,54.9z"/>
</g>
</svg>
