<?xml version="1.0" encoding="utf-8"?>
<!-- Generator: Adobe Illustrator 28.2.0, SVG Export Plug-In . SVG Version: 6.00 Build 0)  -->
<svg version="1.1" id="Camada_1" xmlns="http://www.w3.org/2000/svg" xmlns:xlink="http://www.w3.org/1999/xlink" x="0px" y="0px"
	 viewBox="0 0 220.7 55" style="enable-background:new 0 0 220.7 55;" xml:space="preserve">
<style type="text/css">
	.st0{clip-path:url(#SVGID_00000127748891902442709480000012197219837629906094_);fill:#DE1E26;}
	.st1{clip-path:url(#SVGID_00000031888245938641895930000015607052685822174081_);fill:#DE1E26;}
	.st2{clip-path:url(#SVGID_00000170237104447402028360000012901382328407972996_);fill:#DE1E26;}
</style>
<g>
	<g>
		<defs>
			<rect id="SVGID_1_" width="220.7" height="55"/>
		</defs>
		<clipPath id="SVGID_00000065793004698364480570000011406080884673062556_">
			<use xlink:href="#SVGID_1_"  style="overflow:visible;"/>
		</clipPath>
		<path id="Caminho_360" style="clip-path:url(#SVGID_00000065793004698364480570000011406080884673062556_);fill:#DE1E26;" d="
			M0,55h31.2l27.6-26.3c4.4-4.7,10.6-7.5,17.1-7.6h84.9l21.2-21H76.2c0,0-18.2-0.8-29.3,9.3S0,55,0,55"/>
	</g>
	<g>
		<defs>
			<rect id="SVGID_00000038375257101446371780000014613634162773979793_" width="220.7" height="55"/>
		</defs>
		<clipPath id="SVGID_00000062163569037636394660000002463479167799818668_">
			<use xlink:href="#SVGID_00000038375257101446371780000014613634162773979793_"  style="overflow:visible;"/>
		</clipPath>
		<path id="Caminho_361" style="clip-path:url(#SVGID_00000062163569037636394660000002463479167799818668_);fill:#DE1E26;" d="
			M36.8,55h28.9l8-7.9c2.8-2.5,6.3-3.9,10-3.9h54.7l19.3-19.3H80c0,0-10.3-0.4-16.6,5.3S36.8,55,36.8,55"/>
	</g>
	<g>
		<defs>
			<rect id="SVGID_00000153665103948562720400000009712642515736991423_" width="220.7" height="55"/>
		</defs>
		<clipPath id="SVGID_00000123443640056603516880000016764567554138618013_">
			<use xlink:href="#SVGID_00000153665103948562720400000009712642515736991423_"  style="overflow:visible;"/>
		</clipPath>
		<path id="Caminho_362" style="clip-path:url(#SVGID_00000123443640056603516880000016764567554138618013_);fill:#DE1E26;" d="
			M165.9,54.9h-34.2L186.5,0h34.2L165.9,54.9z"/>
	</g>
</g>
</svg>
