<svg id="Grupo_3688" data-name="Grupo 3688" xmlns="http://www.w3.org/2000/svg" xmlns:xlink="http://www.w3.org/1999/xlink" width="42.57" height="41.545" viewBox="0 0 42.57 41.545">
  <defs>
    <clipPath id="clip-path">
      <rect id="Retângulo_3370" data-name="Retângulo 3370" width="42.57" height="41.544" fill="#fff"/>
    </clipPath>
  </defs>
  <g id="Grupo_3687" data-name="Grupo 3687" clip-path="url(#clip-path)">
    <path id="Caminho_13194" data-name="Caminho 13194" d="M415.376,27.753c-1.324-.973-3.4-1.96-3.4-3.783V17.116l1.932-.092v5.791l5.6-.269V18.008c0-3.609-2.951-5.889-6.556-5.713a6.9,6.9,0,0,0-5.524,2.83,6.078,6.078,0,0,1,.5.424,6.8,6.8,0,0,1,2,5.089V30.906c.2.143.39.284.576.427,1.324.973,3.4,1.915,3.4,3.82v7.995l-1.932.092V37.476l-5.6.263v4.506c0,3.6,2.953,5.889,6.557,5.727,3.8-.174,6.562-2.668,6.562-6.336l.076-6.529c0-4.774-2.457-6.023-4.195-7.353" transform="translate(-383.523 -11.595)" fill="#fff"/>
    <path id="Caminho_13195" data-name="Caminho 13195" d="M13.12,124.871a5.85,5.85,0,0,0-1.548-4.176l-.092-.092.092-.1a7.9,7.9,0,0,0,1.548-4.864v-6.225A5.374,5.374,0,0,0,7.092,103.7L0,104.07v35.3l6.857-.339c3.8-.184,6.262-2.679,6.262-6.349Zm-5.6,9.526-1.932.092V123.41l1.932-.1Zm0-16.1-1.932.1V108.374l1.932-.1Z" transform="translate(0 -97.825)" fill="#fff"/>
    <path id="Caminho_13196" data-name="Caminho 13196" d="M13.12,124.871a5.85,5.85,0,0,0-1.548-4.176l-.092-.092.092-.1a7.9,7.9,0,0,0,1.548-4.864v-6.225A5.374,5.374,0,0,0,7.092,103.7L0,104.07v35.3l6.857-.339c3.8-.184,6.262-2.679,6.262-6.349Zm-5.6,9.526-1.932.092V123.41l1.932-.1Zm0-16.1-1.932.1V108.374l1.932-.1Z" transform="translate(0 -97.825)" fill="#fff"/>
    <path id="Caminho_13197" data-name="Caminho 13197" d="M230.264,64.181a5.387,5.387,0,0,0-6.028-5.746l-7.092.374v2.879a6.414,6.414,0,0,1,1.959,5.048v6.179a9.005,9.005,0,0,1-1.358,4.918,6.851,6.851,0,0,1,1.358,4.343v7.793a7.514,7.514,0,0,1-1.232,4.274L222.74,94V80.9L224,80.838c3.8-.192,6.262-2.7,6.262-6.382Zm-5.6,11.586-1.932.1V63.136l1.932-.1Z" transform="translate(-204.933 -55.139)" fill="#fff"/>
    <path id="Caminho_13198" data-name="Caminho 13198" d="M661.884,5.472A2.743,2.743,0,0,1,659.5,4.125a2.8,2.8,0,0,1,0-2.764,2.775,2.775,0,0,1,4.775,0,2.8,2.8,0,0,1,0,2.764,2.726,2.726,0,0,1-2.387,1.347m0-.671a1.979,1.979,0,0,0,1.035-.275A2.06,2.06,0,0,0,660.855.96a2.024,2.024,0,0,0-.737.743,2.15,2.15,0,0,0,0,2.082,2.02,2.02,0,0,0,.737.742,1.986,1.986,0,0,0,1.029.275m-1.1-3.494h1.3a1.2,1.2,0,0,1,.8.263.852.852,0,0,1,.311.682.822.822,0,0,1-.311.665,1.219,1.219,0,0,1-.8.257h-.515V4.179h-.79Zm.79,1.269h.466c.24,0,.359-.1.359-.31s-.12-.311-.359-.311h-.467Zm.828,1.6-.612-1.2h.837l.623,1.2Z" transform="translate(-622.066 0)" fill="#fff"/>
  </g>
</svg>
