<svg xmlns="http://www.w3.org/2000/svg" xmlns:xlink="http://www.w3.org/1999/xlink" width="234.838" height="43.989" viewBox="0 0 234.838 43.989">
  <defs>
    <clipPath id="clip-path">
      <rect id="Retângulo_299" data-name="Retângulo 299" width="234.838" height="43.989" fill="#fff"/>
    </clipPath>
  </defs>
  <g id="Grupo_119" data-name="Grupo 119" clip-path="url(#clip-path)">
    <path id="Caminho_306" data-name="Caminho 306" d="M783.44,7.956A2.919,2.919,0,0,1,780.9,6.523a2.936,2.936,0,1,1,5.081,0,2.9,2.9,0,0,1-2.541,1.433m0-.714a2.108,2.108,0,0,0,1.1-.292,2.193,2.193,0,0,0-2.2-3.8,2.151,2.151,0,0,0-.784.79,2.287,2.287,0,0,0,0,2.216,2.147,2.147,0,0,0,.784.789,2.113,2.113,0,0,0,1.1.292m-1.172-3.718h1.388a1.28,1.28,0,0,1,.853.28.9.9,0,0,1,.331.726.875.875,0,0,1-.331.707,1.3,1.3,0,0,1-.853.274h-.548V6.58h-.841Zm.841,1.35h.5q.383,0,.382-.33t-.382-.332h-.5Zm.881,1.707-.651-1.272h.891l.663,1.274Z" transform="translate(-551.53 -1.507)" fill="#fff"/>
    <path id="Caminho_307" data-name="Caminho 307" d="M455.671,42.948c0-5.065-2.607-6.39-4.451-7.8-1.4-1.033-3.613-2.079-3.613-4.014V23.861l2.046-.1v7.382l5.937-.285V24.8c0-3.83-3.131-6.249-6.956-6.061-4.037.2-6.964,2.852-6.964,6.738v6.162c0,4.612,2.526,5.887,4.369,7.3,1.4,1.033,3.613,2.031,3.613,4.053v8.482l-2.046.095v-8.59l-5.937.279v7.256c0,3.825,3.133,6.251,6.958,6.076,4.037-.185,6.962-2.833,6.962-6.722Z" transform="translate(-312.096 -13.237)" fill="#fff"/>
    <path id="Caminho_308" data-name="Caminho 308" d="M742.953,28.94c0-5.1-2.607-6.437-4.451-7.86-1.4-1.041-3.613-2.095-3.613-4.045V9.712l2.046-.1v7.436l5.937-.285v-6.1c0-3.858-3.131-6.3-6.956-6.108-4.037.2-6.964,2.871-6.964,6.784v6.207c0,4.646,2.526,5.931,4.37,7.353,1.4,1.041,3.613,2.047,3.613,4.083v8.544l-2.046.095V28.97l-5.937.279v7.308c0,3.853,3.133,6.3,6.958,6.123,4.037-.185,6.962-2.851,6.962-6.769Z" transform="translate(-515.098 -3.213)" fill="#fff"/>
    <path id="Caminho_309" data-name="Caminho 309" d="M506.115,15.857l-12.469.612v5.321l3.266-.159V53.821l5.937-.272V21.343l3.266-.159Z" transform="translate(-348.824 -11.205)" fill="#fff"/>
    <path id="Caminho_310" data-name="Caminho 310" d="M554.141,13.327l-5.937.292V46.3l-2.046.1V13.719l-5.937.292V45.332c0,3.835,3.45,6.253,7.276,6.078,4.036-.185,6.644-2.825,6.644-6.724Z" transform="translate(-381.735 -9.417)" fill="#fff"/>
    <path id="Caminho_311" data-name="Caminho 311" d="M608.49,17.818a5.737,5.737,0,0,0-6.4-6.114l-7.524.369v37.6l7.275-.334c4.036-.185,6.644-2.828,6.644-6.733ZM602.553,44.4l-2.046.095V16.682l2.046-.1Z" transform="translate(-420.14 -8.264)" fill="#fff"/>
    <path id="Caminho_312" data-name="Caminho 312" d="M648.955,9.616V47.264l5.937-.272V9.324Z" transform="translate(-458.569 -6.589)" fill="#fff"/>
    <path id="Caminho_313" data-name="Caminho 313" d="M690.063,13.252c0-3.853-3.136-6.287-6.961-6.1-4.037.2-6.959,2.867-6.959,6.775V39.111c0,3.848,3.141,6.289,6.966,6.114,4.036-.185,6.954-2.847,6.954-6.76ZM684.126,40.08l-2.046.095V12.3l2.046-.1Z" transform="translate(-477.781 -5.047)" fill="#fff"/>
    <path id="Caminho_314" data-name="Caminho 314" d="M13.92,43.37a6.206,6.206,0,0,0-1.642-4.431l-.1-.1.1-.106a8.385,8.385,0,0,0,1.642-5.161V26.97a5.7,5.7,0,0,0-6.4-6.065L0,21.3V58.753l7.275-.36c4.037-.2,6.644-2.842,6.644-6.732ZM7.983,53.477l-2.046.1V41.821l2.046-.1Zm0-17.077L5.937,36.5V25.869l2.046-.107Z" transform="translate(0 -14.764)" fill="#fff"/>
    <path id="Caminho_315" data-name="Caminho 315" d="M54.385,18.663v37.5L65,55.641V49.69l-4.681.234V18.35Z" transform="translate(-38.43 -12.967)" fill="#fff"/>
    <path id="Caminho_316" data-name="Caminho 316" d="M108.708,14.785l-5.937.313V47.772l-2.046.1V15.206l-5.937.313V46.837a5.727,5.727,0,0,0,6.4,6.094c4.036-.2,7.525-2.891,7.525-6.79Z" transform="translate(-66.98 -10.447)" fill="#fff"/>
    <path id="Caminho_317" data-name="Caminho 317" d="M159.328,33.494V28.155l-4.37.224V18.142l4.37-.228V12.575l-10.306.543V50.711l10.618-.525V44.847l-4.681.234V33.717Z" transform="translate(-105.303 -8.886)" fill="#fff"/>
    <path id="Caminho_318" data-name="Caminho 318" d="M203.707,16.993c0-3.848-2.57-6.3-6.4-6.1l-7.524.4V48.925l5.937-.294v-13.9l1.338-.068c4.037-.2,6.644-2.862,6.644-6.77ZM197.77,29.285l-2.046.1V15.884l2.046-.107Z" transform="translate(-134.109 -7.692)" fill="#fff"/>
    <path id="Caminho_319" data-name="Caminho 319" d="M256.638,45.5V30.711A6.267,6.267,0,0,0,255,26.253l-.1-.1.1-.106a6.711,6.711,0,0,0,1.642-4.564V14.21c0-3.853-2.57-6.307-6.4-6.105l-7.524.4V46.184l5.937-.294V29.15l2.046-.1V45.789ZM248.655,23.8V13.1l2.046-.107V23.7Z" transform="translate(-171.511 -5.719)" fill="#fff"/>
    <path id="Caminho_320" data-name="Caminho 320" d="M297.132,5.863V43.6l5.937-.294V5.55Z" transform="translate(-209.962 -3.922)" fill="#fff"/>
    <path id="Caminho_321" data-name="Caminho 321" d="M392.586,0,380.117.657V6.023l3.266-.171V38.308l5.937-.294V5.542l3.266-.171Z" transform="translate(-268.601 0)" fill="#fff"/>
    <path id="Caminho_322" data-name="Caminho 322" d="M333.117,2.841v8.152l1.119,13.016-1.384.07L329.917,3.01l-5.655.3v37.76l5.937-.294V33.126l-1.3-14.7,1.375-.094L333.4,40.615l5.656-.28V2.528Z" transform="translate(-229.132 -1.786)" fill="#fff"/>
  </g>
</svg>
