<?xml version="1.0" encoding="utf-8"?>
<!-- Generator: Adobe Illustrator 28.3.0, SVG Export Plug-In . SVG Version: 6.00 Build 0)  -->
<svg version="1.1" id="Camada_1" xmlns="http://www.w3.org/2000/svg" xmlns:xlink="http://www.w3.org/1999/xlink" x="0px" y="0px"
	 viewBox="0 0 547.6 198.2" style="enable-background:new 0 0 547.6 198.2;" xml:space="preserve">
<g>
	<g>
		<path d="M50.4,47.5V36.8H116c5.7,0,9.6-0.7,11.7-2.2c2.1-1.5,3.1-3.3,3.1-5.6v-7.8c0-2.5-1-4.3-3.1-5.6c-2.1-1.2-5.8-1.9-11.4-1.9
			H39.8V3.3H109c20.2,0,35.1,1.5,44.7,4.4c9.6,2.9,14.4,8,14.4,15.2v2.4c0,4.8-2,8.5-6.1,11.1s-10.4,4.4-19.1,5.4
			c8.6,1.1,15,2.9,19.1,5.5s6.1,6.3,6.1,11.1v4.9c0,7.2-4.8,12.3-14.4,15.2c-9.6,2.9-24.5,4.4-44.7,4.4H39.8V72.3h76.7
			c5.5,0,9.3-0.6,11.4-1.9c2.1-1.2,3.1-3.1,3.1-5.6v-9.7c0-2.3-1-4.1-3.1-5.6s-6-2.2-11.7-2.2H50.4V47.5z"/>
		<path d="M270.4,36.3c9.8,0,18,0.3,24.8,1s12.2,1.8,16.4,3.4c4.1,1.6,7.1,3.7,9,6.3c1.8,2.6,2.8,5.9,2.8,9.8v5.6
			c0,4-0.9,7.5-2.7,10.3c-1.8,2.8-4.8,5.1-9,6.8c-4.2,1.7-10,2.9-17.2,3.7c-7.2,0.7-16.2,1.1-27.1,1.1h-28.9
			c-10.9,0-20.1-0.6-27.7-1.8c-7.6-1.2-13.7-3-18.3-5.5s-8-5.7-10-9.6c-2.1-3.9-3.1-8.6-3.1-14V38.1c0-5.6,1-10.6,2.9-14.9
			s5.2-8,9.9-10.9s11-5.2,19-6.7c7.9-1.5,17.9-2.3,29.8-2.3h80v10.6h-77c-6.2,0-11.3,0.4-15.4,1.2c-4.1,0.8-7.4,2.1-9.8,3.8
			c-2.4,1.7-4.1,3.8-5.1,6.3s-1.5,5.5-1.5,8.9v2.2C212.2,36.3,270.4,36.3,270.4,36.3z M240.5,73.7h28.2c4.2,0,7.7-0.2,10.5-0.7
			c2.7-0.5,4.9-1.1,6.4-1.9c1.6-0.8,2.6-1.8,3.2-3.1c0.6-1.2,0.9-2.6,0.9-4.2v-7.2c0-3-1.4-5.3-4.3-7.1c-2.9-1.7-8.4-2.6-16.5-2.6
			h-56.8v9.5c0,6.9,2.1,11.5,6.3,13.8C222.6,72.5,230,73.7,240.5,73.7z"/>
		<path d="M419,84.3h-25.5c-11.7,0-21.4-0.8-29.3-2.3c-7.8-1.6-14-3.8-18.6-6.8s-7.9-6.8-9.8-11.3s-2.9-9.6-2.9-15.4V37.8
			c0-5.8,1-11,3-15.4c2-4.5,5.4-8.2,10.1-11.3c4.7-3,11.1-5.3,19-6.8c7.9-1.6,17.7-2.3,29.4-2.3h25.5c11.7,0,21.5,0.8,29.4,2.3
			c7.9,1.6,14.3,3.8,19,6.8s8.1,6.8,10.1,11.3s3,9.6,3,15.4v10.6c0,5.8-1.1,11-3.2,15.4c-2.1,4.5-5.6,8.2-10.5,11.3
			c-4.9,3-11.3,5.3-19.4,6.8C440.5,83.5,430.7,84.3,419,84.3z M370.2,51.3c0,6.7,1.1,11.7,3.2,15.1c2.1,3.4,5.4,5.6,9.9,6.6l38-60.5
			h-29.8c-7.4,0-12.7,1.7-16.1,5s-5.1,9.1-5.1,17.3v16.5H370.2z M422.2,73.7c7.9,0,13.6-1.7,17.1-5c3.5-3.4,5.2-9.1,5.2-17.4V34.8
			c0-6.5-1.1-11.5-3.2-14.9s-5.5-5.6-10-6.7l-37.9,60.4L422.2,73.7L422.2,73.7z"/>
	</g>
	<g>
		<path d="M347.2,150.4c0,2.2-1.1,4.4-2.9,5.7l-42.2,30.8c-1.2,0.9-2.7,1.3-4.1,1.3c-2.2,0-4.3-1-5.7-2.9c-2.3-3.1-1.6-7.5,1.5-9.8
			l24-17.5c-18.7,1.4-37.9,2.1-57.3,2.1c-68.4,0-132.9-8.8-181.4-24.8C28.1,118.6,0,95.3,0,69.7c0-9,3.5-17.9,10.3-26.2
			c2.5-3,6.9-3.4,9.9-1c3,2.5,3.4,6.9,1,9.8C16.4,58.1,14,64,14,69.7c0,18.8,25.3,37.9,69.4,52.4c47.2,15.5,110.1,24.1,177.1,24.1
			c19.9,0,39.6-0.8,58.8-2.3l-26.4-19c-3.1-2.3-3.8-6.6-1.6-9.8c2.3-3.1,6.6-3.8,9.8-1.6l43.2,31.2
			C346.1,146,347.2,148.1,347.2,150.4z"/>
	</g>
	<g>
		<path d="M387,149.1c-3.3,0-6.2-2.3-6.9-5.7c-0.7-3.8,1.8-7.5,5.6-8.2c73.7-14,124.1-39.8,121.3-65.5c-0.6-5.8-0.6-6.1-4.9-12.6
			c-2.5-3-2.1-7.4,0.9-9.9s7.4-2.1,9.9,0.9c7,8.4,8.1,15.2,8.1,21.5c0,22.3-21,38.7-38.6,48.5c-22.9,12.8-55.4,23.4-94.1,30.8
			C387.9,149.1,387.4,149.1,387,149.1z"/>
	</g>
</g>
<g>
	<path d="M487.6,21.3v-5.7c0-4.7,1.6-8.4,4.7-11.2c3.1-2.8,7-4.2,11.6-4.2h27.9c4.4,0,8.1,1.4,11.2,4.2c3.1,2.8,4.7,6.5,4.7,11.2
		v5.7c0,4.7-1.6,8.4-4.7,11.3c-3.1,2.9-6.8,4.3-11.2,4.3h-27.9c-4.7,0-8.5-1.4-11.6-4.3C489.1,29.7,487.6,25.9,487.6,21.3z M503,15
		v7.1c0,1.7,0.3,3,1,4c0.7,1,1.8,1.5,3.3,1.5H527c1.8,0,3-0.5,3.6-1.5c0.7-1,1-2.3,1-4V15c0-1.9-0.3-3.4-1-4.4
		c-0.7-1-1.9-1.5-3.6-1.5h-19.7c-1.6,0-2.7,0.5-3.3,1.5C503.3,11.6,503,13.1,503,15z"/>
</g>
</svg>
