<svg id="Grupo_3649" data-name="Grupo 3649" xmlns="http://www.w3.org/2000/svg" xmlns:xlink="http://www.w3.org/1999/xlink" width="234.455" height="53.416" viewBox="0 0 234.455 53.416">
  <defs>
    <clipPath id="clip-path">
      <rect id="Retângulo_301" data-name="Retângulo 301" width="234.455" height="53.416" fill="#fff"/>
    </clipPath>
  </defs>
  <g id="Grupo_123" data-name="Grupo 123" clip-path="url(#clip-path)">
    <path id="Caminho_323" data-name="Caminho 323" d="M446.154,7A3.508,3.508,0,0,1,443.1,5.276a3.577,3.577,0,0,1,0-3.536,3.55,3.55,0,0,1,6.107,0,3.585,3.585,0,0,1,0,3.536A3.486,3.486,0,0,1,446.153,7m0-.858a2.534,2.534,0,0,0,1.324-.352,2.636,2.636,0,0,0-2.641-4.562,2.588,2.588,0,0,0-.942.95,2.75,2.75,0,0,0,0,2.663,2.583,2.583,0,0,0,.942.949,2.542,2.542,0,0,0,1.317.352m-1.408-4.47h1.668a1.538,1.538,0,0,1,1.026.337,1.088,1.088,0,0,1,.4.873,1.052,1.052,0,0,1-.4.85,1.558,1.558,0,0,1-1.026.329h-.658V5.345h-1.011Zm1.01,1.623h.6q.46,0,.46-.4t-.46-.4h-.6Zm1.059,2.052-.783-1.529H447.1l.8,1.531Z" transform="translate(-286.544 0)" fill="#fff"/>
    <path id="Caminho_324" data-name="Caminho 324" d="M16.732,49.445a7.46,7.46,0,0,0-1.974-5.326L14.643,44l.115-.127a10.079,10.079,0,0,0,1.974-6.2V29.732c0-4.6-3.089-7.533-7.687-7.291L0,22.918V67.935L8.745,67.5c4.852-.24,7.987-3.416,7.987-8.092ZM9.6,61.593l-2.459.123V47.583L9.6,47.458Zm0-20.527-2.459.126V28.408L9.6,28.28Z" transform="translate(0 -14.519)" fill="#fff"/>
    <path id="Caminho_325" data-name="Caminho 325" d="M54.385,20.26V65.339l12.763-.632V57.555l-5.627.281V19.884Z" transform="translate(-35.207 -12.872)" fill="#fff"/>
    <path id="Caminho_326" data-name="Caminho 326" d="M111.52,16.319l-7.136.376V55.97l-2.459.123V16.825l-7.137.376V54.846c0,4.609,3.089,7.553,7.687,7.325,4.852-.24,9.045-3.476,9.045-8.162Z" transform="translate(-61.362 -10.564)" fill="#fff"/>
    <path id="Caminho_327" data-name="Caminho 327" d="M161.41,39.254V32.837l-5.252.27V20.8l5.252-.274V14.109l-12.388.653V59.949l12.763-.632V52.9l-5.627.281V39.522Z" transform="translate(-96.471 -9.134)" fill="#fff"/>
    <path id="Caminho_328" data-name="Caminho 328" d="M206.519,19.761c0-4.625-3.089-7.57-7.687-7.328l-9.044.477V58.144l7.136-.353V41.084L198.532,41c4.852-.246,7.987-3.44,7.987-8.138Zm-7.136,14.775-2.459.126V18.428l2.459-.128Z" transform="translate(-122.861 -8.04)" fill="#fff"/>
    <path id="Caminho_329" data-name="Caminho 329" d="M259.45,54.585V36.814a7.533,7.533,0,0,0-1.973-5.359l-.115-.116.115-.128a8.067,8.067,0,0,0,1.973-5.486V16.98c0-4.632-3.089-7.581-7.687-7.338l-9.044.477V55.413l7.136-.353V34.938l2.459-.125V54.938Zm-9.6-26.078V15.645l2.459-.129V28.381Z" transform="translate(-157.127 -6.233)" fill="#fff"/>
    <path id="Caminho_330" data-name="Caminho 330" d="M297.132,7.46V52.817l7.136-.353V7.084Z" transform="translate(-192.352 -4.586)" fill="#fff"/>
    <path id="Caminho_331" data-name="Caminho 331" d="M395.1,1.534l-14.987.79V8.773l3.926-.205V47.581l7.136-.353V8.2L395.1,7.99Z" transform="translate(-246.074 -0.993)" fill="#fff"/>
    <path id="Caminho_332" data-name="Caminho 332" d="M334.906,4.438v9.8l1.345,15.645-1.664.085L331.06,4.641l-6.8.359V50.387l7.136-.353V40.841l-1.561-17.664,1.652-.114,3.754,26.78,6.8-.336V4.062Z" transform="translate(-209.915 -2.629)" fill="#fff"/>
    <path id="Caminho_333" data-name="Caminho 333" d="M449.163,59.789a5.014,5.014,0,0,1-3.542-1.011,5.664,5.664,0,0,1-1.754-3.687l2.568-.787a4.253,4.253,0,0,0,.951,2.51,2.294,2.294,0,0,0,1.8.659,2.043,2.043,0,0,0,1.444-.6,2.1,2.1,0,0,0,.527-1.515,2.2,2.2,0,0,0-.16-.875,1.824,1.824,0,0,0-.5-.663,4.85,4.85,0,0,0-.883-.577q-.539-.284-1.295-.66a7.535,7.535,0,0,1-3-2.205,4.992,4.992,0,0,1-.894-3.017,4.925,4.925,0,0,1,.332-1.827,4.325,4.325,0,0,1,.951-1.467,4.612,4.612,0,0,1,1.513-1,5.913,5.913,0,0,1,2.017-.429,5.729,5.729,0,0,1,2.1.232,3.681,3.681,0,0,1,1.433.86,3.884,3.884,0,0,1,.882,1.368,7.985,7.985,0,0,1,.447,1.755l-2.59.834a5.649,5.649,0,0,0-.745-2.1,1.587,1.587,0,0,0-1.547-.659,1.663,1.663,0,0,0-1.249.564,1.882,1.882,0,0,0-.447,1.259,2.288,2.288,0,0,0,.115.762,1.779,1.779,0,0,0,.39.623,3.6,3.6,0,0,0,.71.574q.435.277,1.055.591,1.054.523,1.9.986a6.52,6.52,0,0,1,1.432,1.032,3.877,3.877,0,0,1,.894,1.321,4.882,4.882,0,0,1,.31,1.853A6.322,6.322,0,0,1,454,56.543a4.458,4.458,0,0,1-2.556,2.759,6.454,6.454,0,0,1-2.281.487" transform="translate(-287.344 -27.597)" fill="#fff"/>
    <path id="Caminho_334" data-name="Caminho 334" d="M477.538,53.886l2.681-.128.16,2.17.115-.006a4.085,4.085,0,0,1,1.112-1.784,2.92,2.92,0,0,1,1.914-.768,2.547,2.547,0,0,1,1.478.341,3.036,3.036,0,0,1,1.054,1.13,5.951,5.951,0,0,1,.631,1.826,12.845,12.845,0,0,1,.206,2.408v.963a10.062,10.062,0,0,1-.286,2.523,6.311,6.311,0,0,1-.779,1.86,3.66,3.66,0,0,1-1.146,1.155,2.864,2.864,0,0,1-1.364.432,2.6,2.6,0,0,1-1.524-.363,3.26,3.26,0,0,1-1.088-1.14l-.115.005v5.455l-3.048.146Zm4.7,10.021a1.2,1.2,0,0,0,1.032-.792,6.1,6.1,0,0,0,.366-2.475V58.811q0-3.359-1.421-3.292a1.275,1.275,0,0,0-1.112.876,5.945,5.945,0,0,0-.378,2.373v2.194a4.287,4.287,0,0,0,.459,2.276,1.208,1.208,0,0,0,1.054.669" transform="translate(-309.14 -34.548)" fill="#fff"/>
    <path id="Caminho_335" data-name="Caminho 335" d="M516.285,60.676a7.119,7.119,0,0,1-.436,1.557,4.135,4.135,0,0,1-.8,1.265,3.936,3.936,0,0,1-1.2.871,4.337,4.337,0,0,1-1.662.378,4.662,4.662,0,0,1-1.925-.286,3.852,3.852,0,0,1-1.5-1.04,4.819,4.819,0,0,1-.974-1.776,8.174,8.174,0,0,1-.344-2.493V58.143a8.5,8.5,0,0,1,.3-2.272,5.835,5.835,0,0,1,.882-1.888,4.692,4.692,0,0,1,1.433-1.307,4.228,4.228,0,0,1,1.971-.553,3.6,3.6,0,0,1,3.152,1.327,7.181,7.181,0,0,1,1.158,4.54v.665l-5.616.269v.069a7.729,7.729,0,0,0,.378,2.772,1.291,1.291,0,0,0,1.364.88,1.339,1.339,0,0,0,1.181-.716,5.319,5.319,0,0,0,.538-1.842Zm-4.263-6.466a1.105,1.105,0,0,0-1.009.828,7.054,7.054,0,0,0-.3,2.352l2.521-.121a6.954,6.954,0,0,0-.286-2.416.913.913,0,0,0-.928-.643" transform="translate(-328.496 -33.739)" fill="#fff"/>
    <path id="Caminho_336" data-name="Caminho 336" d="M540.445,63.376a4.207,4.207,0,0,1-1.8-.292,3.716,3.716,0,0,1-1.444-1.042,5.018,5.018,0,0,1-.952-1.788,8.292,8.292,0,0,1-.343-2.5v-.963a8.158,8.158,0,0,1,.355-2.5,5.581,5.581,0,0,1,.986-1.87,4.536,4.536,0,0,1,1.5-1.195,4.746,4.746,0,0,1,1.9-.481q3.576-.171,3.9,3.687l-2.269.8a3.838,3.838,0,0,0-.413-1.877,1.135,1.135,0,0,0-1.077-.527,1.356,1.356,0,0,0-1.215.9,6.717,6.717,0,0,0-.389,2.634V57.87a6.005,6.005,0,0,0,.424,2.63,1.213,1.213,0,0,0,1.157.774,1.274,1.274,0,0,0,1.17-.75,5.9,5.9,0,0,0,.458-1.987l2.223.581a5.332,5.332,0,0,1-1.214,3.015,4,4,0,0,1-2.957,1.242" transform="translate(-346.926 -32.84)" fill="#fff"/>
    <path id="Caminho_337" data-name="Caminho 337" d="M564.441,38.313l3.117-.149V41.1l-3.117.149Zm0,4.264,3.117-.149V54.6l-3.117.15Z" transform="translate(-365.398 -24.706)" fill="#fff"/>
    <path id="Caminho_338" data-name="Caminho 338" d="M579.792,61.518a2.349,2.349,0,0,1-1.914-.676,3.153,3.153,0,0,1-.7-2.247,3.709,3.709,0,0,1,.24-1.41,3.475,3.475,0,0,1,.63-1.016,4.443,4.443,0,0,1,.859-.741q.47-.309.929-.583.665-.417,1.3-.753t1.111-.608V52.261q0-1.4-1.1-1.352a1.076,1.076,0,0,0-.963.584,4.425,4.425,0,0,0-.413,1.567l-2.315-.164a4.143,4.143,0,0,1,1.249-3.005A4.52,4.52,0,0,1,581.58,48.8a3.925,3.925,0,0,1,2.854.712,3.307,3.307,0,0,1,.905,2.592v5.776q0,1.009.321,1.246a.641.641,0,0,0,.332.168,1.82,1.82,0,0,0,.424.025v1.536a1.238,1.238,0,0,1-.275.151,2.938,2.938,0,0,1-.4.134,4.461,4.461,0,0,1-.447.09c-.153.022-.291.037-.413.043a2.219,2.219,0,0,1-1.57-.452,2.308,2.308,0,0,1-.677-1.733l-.115.005a2.933,2.933,0,0,1-2.728,2.423m1.307-2.034a.959.959,0,0,0,.882-.627,3.5,3.5,0,0,0,.263-1.422V55.28q-.252.149-.493.31l-.653.433a2.669,2.669,0,0,0-.711.767,2.608,2.608,0,0,0-.252,1.3,1.887,1.887,0,0,0,.241,1.1.793.793,0,0,0,.722.3" transform="translate(-373.644 -31.586)" fill="#fff"/>
    <path id="Caminho_339" data-name="Caminho 339" d="M606.818,34.659l3.117-.149V51.517l-3.117.149Z" transform="translate(-392.832 -22.34)" fill="#fff"/>
    <path id="Caminho_340" data-name="Caminho 340" d="M622.126,53.139a2.6,2.6,0,0,1-.825-.223,1.846,1.846,0,0,1-.883-.756,3.188,3.188,0,0,1-.332-1.65v-7.1l-1.307.063V41.208l1.329-.064v-3.53l3.071-.147V41l1.925-.092v2.269l-1.925.092v6.308q0,.868.459,1.1a1.421,1.421,0,0,0,.871.164l.688-.033v2.269l-1.857.089a7.612,7.612,0,0,1-1.214-.022" transform="translate(-400.575 -24.255)" fill="#fff"/>
    <path id="Caminho_341" data-name="Caminho 341" d="M639.566,60.156q.366-.017.745-.07a3.9,3.9,0,0,0,.7-.159,1.752,1.752,0,0,0,.584-.395,1.407,1.407,0,0,0,.355-.75l.092-.394L638.6,46.312l3.14-.15,1.307,5.988.343,2.047.069,0,.435-2.084,1.4-6.118,2.567-.123-3.552,13.35q-.161.558-.332,1a3.707,3.707,0,0,1-.413.787,3.15,3.15,0,0,1-.562.611,3.23,3.23,0,0,1-.8.474,3.418,3.418,0,0,1-1.1.282q-.687.078-1.535.119Z" transform="translate(-413.408 -29.693)" fill="#fff"/>
    <path id="Caminho_342" data-name="Caminho 342" d="M446.989,120.205V103.794l5.249-.251a4.825,4.825,0,0,1,3.622.934,4.287,4.287,0,0,1,1.123,3.269,5.044,5.044,0,0,1-.733,2.8,4.331,4.331,0,0,1-2.108,1.677l.023.206a2.619,2.619,0,0,1,1.146,1.234,9.163,9.163,0,0,1,.711,2.313q.16.821.3,1.39t.263.943a3.668,3.668,0,0,0,.264.62,1.741,1.741,0,0,0,.321.422v.368l-3.576.171a3.309,3.309,0,0,1-.413-1,13.218,13.218,0,0,1-.275-1.4q-.138-.8-.275-1.659t-.275-1.5A2.409,2.409,0,0,0,452,113.32a.858.858,0,0,0-.745-.242l-.962.046v6.922Zm4.447-9.4a2.1,2.1,0,0,0,1.582-.646,3.038,3.038,0,0,0,.5-1.963,2.5,2.5,0,0,0-.47-1.78A1.882,1.882,0,0,0,451.6,106l-1.306.062v4.791Z" transform="translate(-289.364 -67.022)" fill="#fff"/>
    <path id="Caminho_343" data-name="Caminho 343" d="M486.191,122.118a7.13,7.13,0,0,1-.436,1.557,4.148,4.148,0,0,1-.8,1.265,3.929,3.929,0,0,1-1.2.871,4.346,4.346,0,0,1-1.662.378,4.657,4.657,0,0,1-1.925-.286,3.845,3.845,0,0,1-1.5-1.04,4.814,4.814,0,0,1-.974-1.776,8.175,8.175,0,0,1-.344-2.493v-1.008a8.495,8.495,0,0,1,.3-2.272,5.826,5.826,0,0,1,.882-1.888,4.7,4.7,0,0,1,1.432-1.306,4.227,4.227,0,0,1,1.972-.553,3.6,3.6,0,0,1,3.151,1.327,7.181,7.181,0,0,1,1.158,4.54v.665l-5.616.269v.069a7.73,7.73,0,0,0,.378,2.772,1.291,1.291,0,0,0,1.364.88,1.339,1.339,0,0,0,1.181-.716,5.309,5.309,0,0,0,.538-1.842Zm-4.263-6.466a1.1,1.1,0,0,0-1.009.828,7.054,7.054,0,0,0-.3,2.352l2.521-.121a6.944,6.944,0,0,0-.287-2.416.913.913,0,0,0-.928-.643" transform="translate(-309.015 -73.514)" fill="#fff"/>
    <path id="Caminho_344" data-name="Caminho 344" d="M506.657,112.463l2.843-.136.114,2.287.046,0a4.448,4.448,0,0,1,1.456-1.984,3.391,3.391,0,0,1,1.822-.695,2.08,2.08,0,0,1,1.88.689,3.119,3.119,0,0,1,.573,1.943v9.65l-3.094.148v-8.939a1.517,1.517,0,0,0-.206-.9.752.752,0,0,0-.687-.254,1.442,1.442,0,0,0-1.158.8,3.648,3.648,0,0,0-.47,1.936v7.472l-3.117.15Z" transform="translate(-327.991 -72.458)" fill="#fff"/>
    <path id="Caminho_345" data-name="Caminho 345" d="M537.824,117.177a2.6,2.6,0,0,1-.825-.223,1.847,1.847,0,0,1-.883-.756,3.192,3.192,0,0,1-.332-1.65v-7.1l-1.306.063v-2.269l1.329-.063v-3.53l3.072-.147v3.53l1.925-.092v2.269l-1.925.092v6.308q0,.868.458,1.1a1.422,1.422,0,0,0,.871.164l.688-.033v2.269l-1.857.089a7.616,7.616,0,0,1-1.214-.022" transform="translate(-346.001 -65.711)" fill="#fff"/>
    <path id="Caminho_346" data-name="Caminho 346" d="M557.5,122.585a2.35,2.35,0,0,1-1.914-.676,3.156,3.156,0,0,1-.7-2.247,3.7,3.7,0,0,1,.241-1.41,3.463,3.463,0,0,1,.63-1.016,4.443,4.443,0,0,1,.859-.741q.47-.309.929-.583.664-.416,1.295-.753t1.112-.608v-1.223q0-1.4-1.1-1.352a1.077,1.077,0,0,0-.963.584,4.431,4.431,0,0,0-.413,1.567l-2.315-.164a4.144,4.144,0,0,1,1.249-3.005,4.52,4.52,0,0,1,2.877-1.089,3.928,3.928,0,0,1,2.853.712,3.308,3.308,0,0,1,.905,2.593v5.776q0,1.009.321,1.246a.641.641,0,0,0,.332.167,1.8,1.8,0,0,0,.424.026v1.535a1.237,1.237,0,0,1-.275.151,2.924,2.924,0,0,1-.4.134,4.371,4.371,0,0,1-.447.09c-.153.023-.291.037-.413.043a2.219,2.219,0,0,1-1.57-.452,2.306,2.306,0,0,1-.676-1.733l-.114.006a2.934,2.934,0,0,1-2.728,2.423m1.306-2.034a.959.959,0,0,0,.883-.627,3.5,3.5,0,0,0,.264-1.422v-2.155c-.169.1-.332.2-.493.31l-.653.433a2.662,2.662,0,0,0-.711.767,2.6,2.6,0,0,0-.252,1.3,1.888,1.888,0,0,0,.24,1.1.792.792,0,0,0,.722.3" transform="translate(-359.213 -71.119)" fill="#fff"/>
    <path id="Caminho_347" data-name="Caminho 347" d="M584.527,95.726l3.117-.149v17.008l-3.117.149Z" transform="translate(-378.401 -61.873)" fill="#fff"/>
    <path id="Caminho_348" data-name="Caminho 348" d="M600.467,120.534a5.112,5.112,0,0,1-1.685-.16,3.514,3.514,0,0,1-1.2-.607,3.2,3.2,0,0,1-.825-.98,6.291,6.291,0,0,1-.527-1.281l2.04-.9a3.227,3.227,0,0,0,.859,1.712,1.794,1.794,0,0,0,1.272.409,1.317,1.317,0,0,0,.963-.39,1.284,1.284,0,0,0,.321-.887,1.55,1.55,0,0,0-.081-.523,1.1,1.1,0,0,0-.287-.422,2.641,2.641,0,0,0-.584-.4q-.378-.2-.951-.448a6.254,6.254,0,0,1-2.27-1.5,3.537,3.537,0,0,1-.825-2.482,3.957,3.957,0,0,1,.275-1.5,3.344,3.344,0,0,1,.791-1.173,3.785,3.785,0,0,1,1.238-.781,5.008,5.008,0,0,1,1.616-.329,4.391,4.391,0,0,1,1.547.167,3.054,3.054,0,0,1,1.1.6,2.744,2.744,0,0,1,.7.952,5.113,5.113,0,0,1,.367,1.243l-1.972.69a2.692,2.692,0,0,0-.664-1.469,1.5,1.5,0,0,0-1.1-.348,1.288,1.288,0,0,0-.813.337,1.151,1.151,0,0,0-.356.911,1.529,1.529,0,0,0,.092.557,1.19,1.19,0,0,0,.3.433,2.566,2.566,0,0,0,.562.386q.355.189.883.416.8.352,1.421.665a4.116,4.116,0,0,1,1.032.719,2.732,2.732,0,0,1,.63.955,4.458,4.458,0,0,1-.859,4.281,4.444,4.444,0,0,1-3,1.141" transform="translate(-385.975 -69.844)" fill="#fff"/>
  </g>
</svg>
