<?xml version="1.0" encoding="UTF-8"?>
<svg data-bbox="0 0.088 234.5 53.312" viewBox="0 0 234.5 53.4" y="0" x="0" xmlns:xlink="http://www.w3.org/1999/xlink" xmlns="http://www.w3.org/2000/svg" data-type="shape">
    <g>
        <defs>
            <path id="a665f31c-81ad-4bfe-b7ca-a0d53ba4c714" d="M234.5 0v53.4H0V0h234.5z"/>
        </defs>
        <clipPath id="2afcf380-b133-47ff-961a-eb588dc62338">
            <use xlink:href="#a665f31c-81ad-4bfe-b7ca-a0d53ba4c714" overflow="visible"/>
        </clipPath>
        <g clip-path="url(#2afcf380-b133-47ff-961a-eb588dc62338)">
            <path d="M159.6 7c-1.3 0-2.4-.6-3.1-1.7-.6-1.1-.6-2.4 0-3.5 1-1.7 3.2-2.2 4.9-1.2.5.3.9.7 1.2 1.2.6 1.1.6 2.4 0 3.5s-1.7 1.7-3 1.7m0-.9c.5 0 .9-.1 1.3-.4 1.2-.7 1.7-2.4.9-3.6-.7-1.2-2.3-1.6-3.5-.9-.4.2-.7.6-.9 1-.5.8-.5 1.8 0 2.7.2.4.6.7.9.9.4.2.8.3 1.3.3m-1.4-4.4h1.7c.4 0 .7.1 1 .3.3.2.4.5.4.9 0 .3-.1.6-.4.8-.3.2-.7.3-1 .3h-.7v1.3h-1V1.7zm1 1.6h.6c.3 0 .5-.1.5-.4s-.2-.4-.5-.4h-.6v.8zm1.1 2-.8-1.5h1.1l.8 1.5h-1.1z"/>
            <path d="M16.7 34.9c.1-2-.6-3.9-2-5.3l-.1-.1.1-.1c1.3-1.8 2-4 2-6.2v-7.9c0-4.6-3.1-7.5-7.7-7.3l-9 .4v45l8.7-.4c4.9-.2 8-3.4 8-8.1v-10zM9.6 47.1l-2.5.1V33.1l2.5-.1v14.1zm0-20.6-2.5.1V13.9l2.5-.1v12.7z"/>
            <path d="M19.2 7.4v45.1l12.8-.6v-7.2l-5.7.3V7l-7.1.4z"/>
            <path d="m50.2 5.8-7.2.3v39.3l-2.5.1V6.3l-7.1.4v37.6c0 4.6 3.1 7.6 7.7 7.3 4.9-.2 9-3.5 9-8.2l.1-37.6z"/>
            <path d="M64.9 30.1v-6.4l-5.2.3V11.7l5.3-.3V5l-12.4.6v45.2l12.8-.6v-6.4l-5.7.2V30.4l5.2-.3z"/>
            <path d="M83.7 11.7c0-4.6-3.1-7.6-7.7-7.3l-9 .5v45.2l7.1-.4V33l1.6-.1c4.9-.2 8-3.4 8-8.1V11.7zm-7.2 14.8-2.5.1V10.4l2.5-.1v16.2z"/>
            <path d="M102.3 48.4V30.6c.1-2-.6-3.9-2-5.4l-.1-.1.1-.1c1.3-1.5 2-3.5 2-5.5v-8.7c0-4.6-3.1-7.6-7.7-7.3l-9 .5v45.3l7.1-.4V28.7l2.5-.1v20.1l7.1-.3zm-9.6-26.1V9.4l2.5-.1v12.9l-2.5.1z"/>
            <path d="M104.8 2.9v45.4l7.1-.4V2.5l-7.1.4z"/>
            <path d="m149 .5-15 .8v6.4l3.9-.2v39l7.1-.4v-39l4-.1V.5z"/>
            <path d="M125 1.8v9.8l1.3 15.6-1.7.1L121.1 2l-6.8.4v45.4l7.1-.4v-9.2l-1.6-17.7 1.7-.1 3.8 26.8 6.8-.3V1.4l-7.1.4z"/>
            <path d="M161.8 32.2c-1.3.1-2.5-.2-3.5-1-1-1-1.6-2.3-1.8-3.7l2.6-.8c0 .9.4 1.8 1 2.5.5.5 1.1.7 1.8.7.5 0 1.1-.2 1.4-.6.4-.4.6-1 .5-1.5 0-.3 0-.6-.2-.9-.1-.3-.3-.5-.5-.7l-.9-.6c-.4-.2-.8-.4-1.3-.7-1.2-.5-2.2-1.2-3-2.2-.6-.9-.9-1.9-.9-3 0-.6.1-1.2.3-1.8.2-.5.5-1 1-1.5.4-.4.9-.8 1.5-1 .6-.3 1.3-.4 2-.4.7-.1 1.4 0 2.1.2.5.2 1 .5 1.4.9.4.4.7.9.9 1.4.2.6.4 1.2.4 1.8l-2.6.8c-.1-.7-.4-1.5-.7-2.1-.3-.5-.9-.8-1.5-.7-.5 0-.9.2-1.2.6-.3.4-.5.8-.4 1.3 0 .3 0 .5.1.8.1.2.2.4.4.6.2.2.4.4.7.6.3.2.6.4 1.1.6.7.3 1.3.7 1.9 1 .5.3 1 .6 1.4 1 .4.4.7.8.9 1.3.2.6.3 1.2.3 1.9s-.1 1.4-.3 2c-.4 1.3-1.3 2.3-2.6 2.8-.7.2-1.5.4-2.3.4"/>
            <path d="m168.4 19.3 2.7-.1.2 2.2h.1c.2-.7.6-1.3 1.1-1.8.5-.5 1.2-.8 1.9-.8.5 0 1 .1 1.5.3.4.3.8.7 1.1 1.1.3.6.5 1.2.6 1.8.1.8.2 1.6.2 2.4v1c0 .8-.1 1.7-.3 2.5-.2.7-.4 1.3-.8 1.9-.3.5-.7.9-1.1 1.2-.4.3-.9.4-1.4.4-.5 0-1.1-.1-1.5-.4-.5-.3-.8-.7-1.1-1.1h-.1v5.5l-3 .1-.1-16.2zm4.7 10.1c.5 0 .9-.3 1-.8.3-.8.4-1.6.4-2.5v-1.8c0-2.2-.5-3.3-1.4-3.3-.5 0-1 .4-1.1.9-.3.8-.4 1.6-.4 2.4v2.2c-.1.8.1 1.6.5 2.3.1.3.5.5 1 .6"/>
            <path d="M187.8 26.9c-.1.5-.2 1.1-.4 1.6s-.5.9-.8 1.3c-.3.4-.7.7-1.2.9-.5.2-1.1.4-1.7.4-.7 0-1.3-.1-1.9-.3-.6-.2-1.1-.6-1.5-1-.4-.5-.8-1.1-1-1.8-.2-.8-.4-1.6-.3-2.5v-1c0-.8.1-1.5.3-2.3.2-.7.5-1.3.9-1.9.4-.5.9-1 1.4-1.3.6-.3 1.3-.5 2-.6 1.2-.1 2.4.4 3.2 1.3.9 1.3 1.3 2.9 1.2 4.5v.7l-5.6.3v.1c0 .9.1 1.9.4 2.8.2.6.8.9 1.4.9.5 0 1-.3 1.2-.7.3-.6.5-1.2.5-1.8l1.9.4zm-4.3-6.4c-.5 0-.9.4-1 .8-.2.8-.3 1.6-.3 2.4l2.5-.1c0-.8 0-1.6-.3-2.4-.1-.5-.5-.8-.9-.7"/>
            <path d="M193.5 30.5c-.6 0-1.2-.1-1.8-.3-.6-.2-1.1-.6-1.4-1-.4-.5-.8-1.1-1-1.8-.2-.8-.4-1.7-.3-2.5v-1c0-.8.1-1.7.4-2.5.2-.7.5-1.3 1-1.9.4-.5.9-.9 1.5-1.2.6-.3 1.2-.5 1.9-.5 2.4-.1 3.7 1.1 3.9 3.7l-2.3.8c0-.7-.1-1.3-.4-1.9-.2-.4-.6-.6-1.1-.5-.6 0-1 .4-1.2.9-.3.8-.4 1.7-.4 2.6V25c-.1.9.1 1.8.4 2.6.2.5.6.8 1.2.8.5 0 1-.3 1.2-.8.3-.6.4-1.3.5-2l2.2.6c-.1 1.1-.5 2.2-1.2 3-.9.9-2 1.4-3.1 1.3"/>
            <path d="m199 13.6 3.1-.1v2.9l-3.1.1v-2.9zm0 4.3 3.1-.1V30H199V17.9z"/>
            <path d="M206.1 29.9c-.7.1-1.4-.2-1.9-.7-.5-.6-.8-1.4-.7-2.2 0-.5.1-1 .2-1.4.1-.4.4-.7.6-1 .3-.3.5-.5.9-.7l.9-.6c.4-.3.9-.5 1.3-.8.4-.2.8-.4 1.1-.6v-1.2c0-.9-.4-1.4-1.1-1.4-.4 0-.8.2-1 .6-.2.5-.4 1-.4 1.6l-2.3-.2c0-1.1.4-2.2 1.2-3 .8-.7 1.8-1.1 2.9-1.1 1-.1 2 .1 2.9.7.7.7 1 1.6.9 2.6v5.8c0 .7.1 1.1.3 1.2.1.1.2.1.3.2h.4v1.5c-.1.1-.2.1-.3.2-.1.1-.3.1-.4.1-.1 0-.3.1-.4.1h-.4c-.6.1-1.1-.1-1.6-.5-.5-.5-.7-1.1-.7-1.7h-.1c-.1 1.5-1.2 2.5-2.6 2.5m1.4-2c.4 0 .7-.3.9-.6.2-.5.3-.9.3-1.4v-2.2c-.2.1-.3.2-.5.3l-.7.4c-.3.2-.5.5-.7.8-.2.4-.3.9-.3 1.3s.1.8.2 1.1c.2.2.5.3.8.3"/>
            <path d="m214 12.3 3.1-.1v17l-3.1.1v-17z"/>
            <path d="M221.6 28.9c-.3 0-.6-.1-.8-.2-.4-.2-.7-.4-.9-.8-.3-.5-.4-1.1-.3-1.7v-7.1l-1.3.1V17l1.3-.1v-3.5l3.1-.1v3.5l1.9-.1V19l-1.9.1v6.3c0 .6.2.9.5 1.1.3.1.6.2.9.2h.7V29l-1.9.1c-.5-.2-.9-.2-1.3-.2"/>
            <path d="M226.2 30.5c.2 0 .5 0 .7-.1.2 0 .5-.1.7-.2.2-.1.4-.2.6-.4.2-.2.3-.5.4-.8l.1-.4-3.4-12.1 3.1-.2 1.3 6 .3 2h.1l.4-2.1 1.4-6.1 2.6-.1-3.6 13.4c-.1.4-.2.7-.3 1-.1.3-.2.5-.4.8-.2.2-.3.4-.6.6-.2.2-.5.4-.8.5-.3.2-.7.2-1.1.3-.5.1-1 .1-1.5.1v-2.2z"/>
            <path d="M157.6 53.2V36.8l5.2-.3c1.3-.2 2.6.1 3.6.9.8.9 1.2 2.1 1.1 3.3 0 1-.2 2-.7 2.8-.5.8-1.2 1.4-2.1 1.7v.2c.5.3.9.7 1.1 1.2.3.7.6 1.5.7 2.3.1.5.2 1 .3 1.4s.2.7.3.9l.3.6c.1.2.2.3.3.4v.4l-3.6.2c-.2-.3-.3-.6-.4-1-.1-.5-.2-.9-.3-1.4-.1-.5-.2-1.1-.3-1.7s-.2-1.1-.3-1.5c0-.4-.2-.7-.4-1-.2-.2-.5-.3-.7-.2h-1v7l-3.1.2zm4.5-9.4c.6 0 1.2-.2 1.6-.6.4-.6.6-1.3.5-2 .1-.6-.1-1.3-.5-1.8-.4-.3-.9-.5-1.4-.4l-1.3.1v4.8l1.1-.1z"/>
            <path d="M177.2 48.6c-.1.5-.2 1.1-.4 1.6s-.5.9-.8 1.3c-.3.4-.7.7-1.2.9-.5.2-1.1.4-1.7.4-.7 0-1.3-.1-1.9-.3-.6-.2-1.1-.6-1.5-1-.4-.5-.8-1.1-1-1.8-.2-.8-.4-1.6-.3-2.5v-1c0-.8.1-1.5.3-2.3.2-.7.5-1.3.9-1.9.4-.5.9-1 1.4-1.3.6-.3 1.3-.5 2-.6 1.2-.1 2.4.4 3.2 1.3.9 1.3 1.3 2.9 1.2 4.5v.7l-5.6.3v.1c0 .9.1 1.9.4 2.8.2.6.8.9 1.4.9.5 0 1-.3 1.2-.7.3-.6.5-1.2.5-1.8l1.9.4zm-4.3-6.5c-.5 0-.9.4-1 .8-.2.8-.3 1.6-.3 2.4l2.5-.1c0-.8 0-1.6-.3-2.4-.1-.4-.5-.7-.9-.7"/>
            <path d="m178.7 40 2.8-.1.1 2.3c.3-.8.8-1.5 1.5-2 .5-.4 1.2-.6 1.8-.7.7-.1 1.4.2 1.9.7.4.6.6 1.2.6 1.9v9.7l-3.1.1V43c0-.3 0-.6-.2-.9-.2-.2-.4-.3-.7-.3-.5 0-.9.4-1.2.8-.3.6-.5 1.3-.5 1.9V52l-3.1.2.1-12.2z"/>
            <path d="M191.8 51.5c-.3 0-.6-.1-.8-.2-.4-.2-.7-.4-.9-.8-.3-.5-.4-1.1-.3-1.7v-7.1l-1.3.1v-2.3l1.3-.1v-3.5l3.1-.1v3.5l1.9-.1v2.3l-1.9.1v6.3c0 .6.2.9.5 1.1.3.1.6.2.9.2h.7v2.3l-1.9.1c-.5-.1-.9-.1-1.3-.1"/>
            <path d="M198.3 51.5c-.7.1-1.4-.2-1.9-.7-.5-.6-.8-1.4-.7-2.2 0-.5.1-1 .2-1.4.1-.4.4-.7.6-1 .3-.3.5-.5.9-.7l.9-.6c.4-.3.9-.5 1.3-.8s.8-.4 1.1-.6v-1.2c0-.9-.4-1.4-1.1-1.4-.4 0-.8.2-1 .6-.2.5-.4 1-.4 1.6l-2.3-.2c0-1.1.4-2.2 1.2-3 .8-.7 1.8-1.1 2.9-1.1 1-.1 2 .1 2.9.7.7.7 1 1.6.9 2.6v5.8c0 .7.1 1.1.3 1.2.1.1.2.1.3.2h.4v1.5c-.1.1-.2.1-.3.2-.1.1-.3.1-.4.1-.1 0-.3.1-.4.1h-.4c-.6.1-1.1-.1-1.6-.5-.5-.5-.7-1.1-.7-1.7h-.1c-.1 1.4-1.3 2.4-2.6 2.5m1.3-2.1c.4 0 .7-.3.9-.6.2-.5.3-.9.3-1.4v-2.2c-.2.1-.3.2-.5.3l-.7.4c-.3.2-.5.5-.7.8-.2.4-.3.9-.3 1.3s0 .8.2 1.1c.2.3.5.4.8.3"/>
            <path d="m206.1 33.9 3.1-.1v17l-3.1.1v-17z"/>
            <path d="M214.5 50.7c-.6 0-1.1 0-1.7-.2-.4-.1-.8-.3-1.2-.6-.3-.3-.6-.6-.8-1-.2-.4-.4-.8-.5-1.3l2-.9c.1.6.4 1.2.9 1.7.4.3.8.4 1.3.4.4 0 .7-.1 1-.4.2-.2.3-.6.3-.9 0-.2 0-.4-.1-.5-.1-.2-.2-.3-.3-.4-.2-.2-.4-.3-.6-.4-.3-.1-.6-.3-1-.4-.9-.3-1.6-.8-2.3-1.5-.6-.7-.9-1.6-.8-2.5 0-.5.1-1 .3-1.5.2-.4.4-.8.8-1.2.4-.3.8-.6 1.2-.8.5-.2 1.1-.3 1.6-.3s1 0 1.5.2c.4.1.8.3 1.1.6.3.3.5.6.7 1 .2.4.3.8.4 1.2l-2 .7c-.1-.5-.3-1.1-.7-1.5-.3-.3-.7-.4-1.1-.3-.3 0-.6.1-.8.3-.2.2-.4.6-.4.9 0 .2 0 .4.1.6.1.2.2.3.3.4.2.2.4.3.6.4.2.1.5.3.9.4.5.2 1 .5 1.4.7.4.2.7.4 1 .7.3.3.5.6.6 1 .5 1.5.2 3.1-.9 4.3-.6.7-1.7 1.1-2.8 1.1"/>
        </g>
    </g>
</svg>
