<?xml version="1.0" encoding="utf-8"?>
<!-- Generator: Adobe Illustrator 28.2.0, SVG Export Plug-In . SVG Version: 6.00 Build 0)  -->
<svg version="1.1" id="Grupo_3649" xmlns="http://www.w3.org/2000/svg" xmlns:xlink="http://www.w3.org/1999/xlink" x="0px" y="0px"
	 viewBox="0 0 234.5 53.4" style="enable-background:new 0 0 234.5 53.4;" xml:space="preserve">
<style type="text/css">
	.st0{clip-path:url(#SVGID_00000023967380702395680900000013791910069301425318_);}
</style>
<g>
	<defs>
		<rect id="SVGID_1_" width="234.5" height="53.4"/>
	</defs>
	<clipPath id="SVGID_00000181055175511839929000000005334246323193712775_">
		<use xlink:href="#SVGID_1_"  style="overflow:visible;"/>
	</clipPath>
	<g id="Grupo_123" style="clip-path:url(#SVGID_00000181055175511839929000000005334246323193712775_);">
		<path id="Caminho_323" d="M159.6,7c-1.3,0-2.4-0.6-3.1-1.7c-0.6-1.1-0.6-2.4,0-3.5c1-1.7,3.2-2.2,4.9-1.2c0.5,0.3,0.9,0.7,1.2,1.2
			c0.6,1.1,0.6,2.4,0,3.5C162,6.4,160.9,7,159.6,7 M159.6,6.1c0.5,0,0.9-0.1,1.3-0.4c1.2-0.7,1.7-2.4,0.9-3.6
			c-0.7-1.2-2.3-1.6-3.5-0.9c-0.4,0.2-0.7,0.6-0.9,1c-0.5,0.8-0.5,1.8,0,2.7c0.2,0.4,0.6,0.7,0.9,0.9C158.7,6,159.1,6.1,159.6,6.1
			 M158.2,1.7h1.7c0.4,0,0.7,0.1,1,0.3c0.3,0.2,0.4,0.5,0.4,0.9c0,0.3-0.1,0.6-0.4,0.8c-0.3,0.2-0.7,0.3-1,0.3h-0.7v1.3h-1
			L158.2,1.7z M159.2,3.3h0.6c0.3,0,0.5-0.1,0.5-0.4s-0.2-0.4-0.5-0.4h-0.6V3.3z M160.3,5.3l-0.8-1.5h1.1l0.8,1.5L160.3,5.3z"/>
		<path id="Caminho_324" d="M16.7,34.9c0.1-2-0.6-3.9-2-5.3l-0.1-0.1l0.1-0.1c1.3-1.8,2-4,2-6.2v-7.9c0-4.6-3.1-7.5-7.7-7.3L0,8.4
			v45L8.7,53c4.9-0.2,8-3.4,8-8.1V34.9z M9.6,47.1l-2.5,0.1V33.1l2.5-0.1V47.1z M9.6,26.5l-2.5,0.1V13.9l2.5-0.1V26.5z"/>
		<path id="Caminho_325" d="M19.2,7.4v45.1l12.8-0.6v-7.2L26.3,45V7L19.2,7.4z"/>
		<path id="Caminho_326" d="M50.2,5.8L43,6.1v39.3l-2.5,0.1V6.3l-7.1,0.4v37.6c0,4.6,3.1,7.6,7.7,7.3c4.9-0.2,9-3.5,9-8.2L50.2,5.8z
			"/>
		<path id="Caminho_327" d="M64.9,30.1v-6.4L59.7,24V11.7l5.3-0.3V5L52.6,5.6v45.2l12.8-0.6v-6.4L59.7,44V30.4L64.9,30.1z"/>
		<path id="Caminho_328" d="M83.7,11.7c0-4.6-3.1-7.6-7.7-7.3l-9,0.5v45.2l7.1-0.4V33l1.6-0.1c4.9-0.2,8-3.4,8-8.1V11.7z M76.5,26.5
			l-2.5,0.1V10.4l2.5-0.1V26.5z"/>
		<path id="Caminho_329" d="M102.3,48.4V30.6c0.1-2-0.6-3.9-2-5.4l-0.1-0.1l0.1-0.1c1.3-1.5,2-3.5,2-5.5v-8.7c0-4.6-3.1-7.6-7.7-7.3
			l-9,0.5v45.3l7.1-0.4V28.7l2.5-0.1v20.1L102.3,48.4z M92.7,22.3V9.4l2.5-0.1v12.9L92.7,22.3z"/>
		<path id="Caminho_330" d="M104.8,2.9v45.4l7.1-0.4V2.5L104.8,2.9z"/>
		<path id="Caminho_331" d="M149,0.5l-15,0.8v6.4l3.9-0.2v39l7.1-0.4v-39L149,7V0.5z"/>
		<path id="Caminho_332" d="M125,1.8v9.8l1.3,15.6l-1.7,0.1L121.1,2l-6.8,0.4v45.4l7.1-0.4v-9.2l-1.6-17.7l1.7-0.1l3.8,26.8l6.8-0.3
			V1.4L125,1.8z"/>
		<path id="Caminho_333" d="M161.8,32.2c-1.3,0.1-2.5-0.2-3.5-1c-1-1-1.6-2.3-1.8-3.7l2.6-0.8c0,0.9,0.4,1.8,1,2.5
			c0.5,0.5,1.1,0.7,1.8,0.7c0.5,0,1.1-0.2,1.4-0.6c0.4-0.4,0.6-1,0.5-1.5c0-0.3,0-0.6-0.2-0.9c-0.1-0.3-0.3-0.5-0.5-0.7
			c-0.3-0.2-0.6-0.4-0.9-0.6c-0.4-0.2-0.8-0.4-1.3-0.7c-1.2-0.5-2.2-1.2-3-2.2c-0.6-0.9-0.9-1.9-0.9-3c0-0.6,0.1-1.2,0.3-1.8
			c0.2-0.5,0.5-1,1-1.5c0.4-0.4,0.9-0.8,1.5-1c0.6-0.3,1.3-0.4,2-0.4c0.7-0.1,1.4,0,2.1,0.2c0.5,0.2,1,0.5,1.4,0.9
			c0.4,0.4,0.7,0.9,0.9,1.4c0.2,0.6,0.4,1.2,0.4,1.8l-2.6,0.8c-0.1-0.7-0.4-1.5-0.7-2.1c-0.3-0.5-0.9-0.8-1.5-0.7
			c-0.5,0-0.9,0.2-1.2,0.6c-0.3,0.4-0.5,0.8-0.4,1.3c0,0.3,0,0.5,0.1,0.8c0.1,0.2,0.2,0.4,0.4,0.6c0.2,0.2,0.4,0.4,0.7,0.6
			c0.3,0.2,0.6,0.4,1.1,0.6c0.7,0.3,1.3,0.7,1.9,1c0.5,0.3,1,0.6,1.4,1c0.4,0.4,0.7,0.8,0.9,1.3c0.2,0.6,0.3,1.2,0.3,1.9
			c0,0.7-0.1,1.4-0.3,2c-0.4,1.3-1.3,2.3-2.6,2.8C163.4,32,162.6,32.2,161.8,32.2"/>
		<path id="Caminho_334" d="M168.4,19.3l2.7-0.1l0.2,2.2l0.1,0c0.2-0.7,0.6-1.3,1.1-1.8c0.5-0.5,1.2-0.8,1.9-0.8
			c0.5,0,1,0.1,1.5,0.3c0.4,0.3,0.8,0.7,1.1,1.1c0.3,0.6,0.5,1.2,0.6,1.8c0.1,0.8,0.2,1.6,0.2,2.4v1c0,0.8-0.1,1.7-0.3,2.5
			c-0.2,0.7-0.4,1.3-0.8,1.9c-0.3,0.5-0.7,0.9-1.1,1.2c-0.4,0.3-0.9,0.4-1.4,0.4c-0.5,0-1.1-0.1-1.5-0.4c-0.5-0.3-0.8-0.7-1.1-1.1
			l-0.1,0v5.5l-3,0.1L168.4,19.3z M173.1,29.4c0.5,0,0.9-0.3,1-0.8c0.3-0.8,0.4-1.6,0.4-2.5v-1.8c0-2.2-0.5-3.3-1.4-3.3
			c-0.5,0-1,0.4-1.1,0.9c-0.3,0.8-0.4,1.6-0.4,2.4v2.2c-0.1,0.8,0.1,1.6,0.5,2.3C172.2,29.1,172.6,29.3,173.1,29.4"/>
		<path id="Caminho_335" d="M187.8,26.9c-0.1,0.5-0.2,1.1-0.4,1.6c-0.2,0.5-0.5,0.9-0.8,1.3c-0.3,0.4-0.7,0.7-1.2,0.9
			c-0.5,0.2-1.1,0.4-1.7,0.4c-0.7,0-1.3-0.1-1.9-0.3c-0.6-0.2-1.1-0.6-1.5-1c-0.4-0.5-0.8-1.1-1-1.8c-0.2-0.8-0.4-1.6-0.3-2.5v-1
			c0-0.8,0.1-1.5,0.3-2.3c0.2-0.7,0.5-1.3,0.9-1.9c0.4-0.5,0.9-1,1.4-1.3c0.6-0.3,1.3-0.5,2-0.6c1.2-0.1,2.4,0.4,3.2,1.3
			c0.9,1.3,1.3,2.9,1.2,4.5v0.7l-5.6,0.3v0.1c0,0.9,0.1,1.9,0.4,2.8c0.2,0.6,0.8,0.9,1.4,0.9c0.5,0,1-0.3,1.2-0.7
			c0.3-0.6,0.5-1.2,0.5-1.8L187.8,26.9z M183.5,20.5c-0.5,0-0.9,0.4-1,0.8c-0.2,0.8-0.3,1.6-0.3,2.4l2.5-0.1c0-0.8,0-1.6-0.3-2.4
			C184.3,20.7,183.9,20.4,183.5,20.5"/>
		<path id="Caminho_336" d="M193.5,30.5c-0.6,0-1.2-0.1-1.8-0.3c-0.6-0.2-1.1-0.6-1.4-1c-0.4-0.5-0.8-1.1-1-1.8
			c-0.2-0.8-0.4-1.7-0.3-2.5v-1c0-0.8,0.1-1.7,0.4-2.5c0.2-0.7,0.5-1.3,1-1.9c0.4-0.5,0.9-0.9,1.5-1.2c0.6-0.3,1.2-0.5,1.9-0.5
			c2.4-0.1,3.7,1.1,3.9,3.7l-2.3,0.8c0-0.7-0.1-1.3-0.4-1.9c-0.2-0.4-0.6-0.6-1.1-0.5c-0.6,0-1,0.4-1.2,0.9
			c-0.3,0.8-0.4,1.7-0.4,2.6V25c-0.1,0.9,0.1,1.8,0.4,2.6c0.2,0.5,0.6,0.8,1.2,0.8c0.5,0,1-0.3,1.2-0.8c0.3-0.6,0.4-1.3,0.5-2
			l2.2,0.6c-0.1,1.1-0.5,2.2-1.2,3C195.7,30.1,194.6,30.6,193.5,30.5"/>
		<path id="Caminho_337" d="M199,13.6l3.1-0.1v2.9l-3.1,0.1V13.6z M199,17.9l3.1-0.1v12.2L199,30V17.9z"/>
		<path id="Caminho_338" d="M206.1,29.9c-0.7,0.1-1.4-0.2-1.9-0.7c-0.5-0.6-0.8-1.4-0.7-2.2c0-0.5,0.1-1,0.2-1.4
			c0.1-0.4,0.4-0.7,0.6-1c0.3-0.3,0.5-0.5,0.9-0.7c0.3-0.2,0.6-0.4,0.9-0.6c0.4-0.3,0.9-0.5,1.3-0.8c0.4-0.2,0.8-0.4,1.1-0.6v-1.2
			c0-0.9-0.4-1.4-1.1-1.4c-0.4,0-0.8,0.2-1,0.6c-0.2,0.5-0.4,1-0.4,1.6l-2.3-0.2c0-1.1,0.4-2.2,1.2-3c0.8-0.7,1.8-1.1,2.9-1.1
			c1-0.1,2,0.1,2.9,0.7c0.7,0.7,1,1.6,0.9,2.6v5.8c0,0.7,0.1,1.1,0.3,1.2c0.1,0.1,0.2,0.1,0.3,0.2c0.1,0,0.3,0,0.4,0v1.5
			c-0.1,0.1-0.2,0.1-0.3,0.2c-0.1,0.1-0.3,0.1-0.4,0.1c-0.1,0-0.3,0.1-0.4,0.1c-0.2,0-0.3,0-0.4,0c-0.6,0.1-1.1-0.1-1.6-0.5
			c-0.5-0.5-0.7-1.1-0.7-1.7l-0.1,0C208.6,28.9,207.5,29.9,206.1,29.9 M207.5,27.9c0.4,0,0.7-0.3,0.9-0.6c0.2-0.5,0.3-0.9,0.3-1.4
			v-2.2c-0.2,0.1-0.3,0.2-0.5,0.3l-0.7,0.4c-0.3,0.2-0.5,0.5-0.7,0.8c-0.2,0.4-0.3,0.9-0.3,1.3c0,0.4,0.1,0.8,0.2,1.1
			C206.9,27.8,207.2,27.9,207.5,27.9"/>
		<path id="Caminho_339" d="M214,12.3l3.1-0.1v17l-3.1,0.1V12.3z"/>
		<path id="Caminho_340" d="M221.6,28.9c-0.3,0-0.6-0.1-0.8-0.2c-0.4-0.2-0.7-0.4-0.9-0.8c-0.3-0.5-0.4-1.1-0.3-1.7v-7.1l-1.3,0.1
			V17l1.3-0.1v-3.5l3.1-0.1v3.5l1.9-0.1v2.3l-1.9,0.1v6.3c0,0.6,0.2,0.9,0.5,1.1c0.3,0.1,0.6,0.2,0.9,0.2l0.7,0v2.3l-1.9,0.1
			C222.4,28.9,222,28.9,221.6,28.9"/>
		<path id="Caminho_341" d="M226.2,30.5c0.2,0,0.5,0,0.7-0.1c0.2,0,0.5-0.1,0.7-0.2c0.2-0.1,0.4-0.2,0.6-0.4
			c0.2-0.2,0.3-0.5,0.4-0.8l0.1-0.4l-3.4-12.1l3.1-0.2l1.3,6l0.3,2h0.1l0.4-2.1l1.4-6.1l2.6-0.1l-3.6,13.4c-0.1,0.4-0.2,0.7-0.3,1
			c-0.1,0.3-0.2,0.5-0.4,0.8c-0.2,0.2-0.3,0.4-0.6,0.6c-0.2,0.2-0.5,0.4-0.8,0.5c-0.3,0.2-0.7,0.2-1.1,0.3c-0.5,0.1-1,0.1-1.5,0.1
			L226.2,30.5z"/>
		<path id="Caminho_342" d="M157.6,53.2V36.8l5.2-0.3c1.3-0.2,2.6,0.1,3.6,0.9c0.8,0.9,1.2,2.1,1.1,3.3c0,1-0.2,2-0.7,2.8
			c-0.5,0.8-1.2,1.4-2.1,1.7l0,0.2c0.5,0.3,0.9,0.7,1.1,1.2c0.3,0.7,0.6,1.5,0.7,2.3c0.1,0.5,0.2,1,0.3,1.4s0.2,0.7,0.3,0.9
			c0.1,0.2,0.2,0.4,0.3,0.6c0.1,0.2,0.2,0.3,0.3,0.4v0.4l-3.6,0.2c-0.2-0.3-0.3-0.6-0.4-1c-0.1-0.5-0.2-0.9-0.3-1.4
			c-0.1-0.5-0.2-1.1-0.3-1.7s-0.2-1.1-0.3-1.5c0-0.4-0.2-0.7-0.4-1c-0.2-0.2-0.5-0.3-0.7-0.2l-1,0V53L157.6,53.2z M162.1,43.8
			c0.6,0,1.2-0.2,1.6-0.6c0.4-0.6,0.6-1.3,0.5-2c0.1-0.6-0.1-1.3-0.5-1.8c-0.4-0.3-0.9-0.5-1.4-0.4l-1.3,0.1v4.8L162.1,43.8z"/>
		<path id="Caminho_343" d="M177.2,48.6c-0.1,0.5-0.2,1.1-0.4,1.6c-0.2,0.5-0.5,0.9-0.8,1.3c-0.3,0.4-0.7,0.7-1.2,0.9
			c-0.5,0.2-1.1,0.4-1.7,0.4c-0.7,0-1.3-0.1-1.9-0.3c-0.6-0.2-1.1-0.6-1.5-1c-0.4-0.5-0.8-1.1-1-1.8c-0.2-0.8-0.4-1.6-0.3-2.5v-1
			c0-0.8,0.1-1.5,0.3-2.3c0.2-0.7,0.5-1.3,0.9-1.9c0.4-0.5,0.9-1,1.4-1.3c0.6-0.3,1.3-0.5,2-0.6c1.2-0.1,2.4,0.4,3.2,1.3
			c0.9,1.3,1.3,2.9,1.2,4.5v0.7l-5.6,0.3v0.1c0,0.9,0.1,1.9,0.4,2.8c0.2,0.6,0.8,0.9,1.4,0.9c0.5,0,1-0.3,1.2-0.7
			c0.3-0.6,0.5-1.2,0.5-1.8L177.2,48.6z M172.9,42.1c-0.5,0-0.9,0.4-1,0.8c-0.2,0.8-0.3,1.6-0.3,2.4l2.5-0.1c0-0.8,0-1.6-0.3-2.4
			C173.7,42.4,173.3,42.1,172.9,42.1"/>
		<path id="Caminho_344" d="M178.7,40l2.8-0.1l0.1,2.3h0c0.3-0.8,0.8-1.5,1.5-2c0.5-0.4,1.2-0.6,1.8-0.7c0.7-0.1,1.4,0.2,1.9,0.7
			c0.4,0.6,0.6,1.2,0.6,1.9v9.7l-3.1,0.1V43c0-0.3,0-0.6-0.2-0.9c-0.2-0.2-0.4-0.3-0.7-0.3c-0.5,0-0.9,0.4-1.2,0.8
			c-0.3,0.6-0.5,1.3-0.5,1.9V52l-3.1,0.2L178.7,40z"/>
		<path id="Caminho_345" d="M191.8,51.5c-0.3,0-0.6-0.1-0.8-0.2c-0.4-0.2-0.7-0.4-0.9-0.8c-0.3-0.5-0.4-1.1-0.3-1.7v-7.1l-1.3,0.1
			v-2.3l1.3-0.1v-3.5l3.1-0.1v3.5l1.9-0.1v2.3l-1.9,0.1v6.3c0,0.6,0.2,0.9,0.5,1.1c0.3,0.1,0.6,0.2,0.9,0.2l0.7,0v2.3l-1.9,0.1
			C192.6,51.5,192.2,51.5,191.8,51.5"/>
		<path id="Caminho_346" d="M198.3,51.5c-0.7,0.1-1.4-0.2-1.9-0.7c-0.5-0.6-0.8-1.4-0.7-2.2c0-0.5,0.1-1,0.2-1.4
			c0.1-0.4,0.4-0.7,0.6-1c0.3-0.3,0.5-0.5,0.9-0.7c0.3-0.2,0.6-0.4,0.9-0.6c0.4-0.3,0.9-0.5,1.3-0.8s0.8-0.4,1.1-0.6v-1.2
			c0-0.9-0.4-1.4-1.1-1.4c-0.4,0-0.8,0.2-1,0.6c-0.2,0.5-0.4,1-0.4,1.6l-2.3-0.2c0-1.1,0.4-2.2,1.2-3c0.8-0.7,1.8-1.1,2.9-1.1
			c1-0.1,2,0.1,2.9,0.7c0.7,0.7,1,1.6,0.9,2.6v5.8c0,0.7,0.1,1.1,0.3,1.2c0.1,0.1,0.2,0.1,0.3,0.2c0.1,0,0.3,0,0.4,0v1.5
			c-0.1,0.1-0.2,0.1-0.3,0.2c-0.1,0.1-0.3,0.1-0.4,0.1c-0.1,0-0.3,0.1-0.4,0.1c-0.2,0-0.3,0-0.4,0c-0.6,0.1-1.1-0.1-1.6-0.5
			c-0.5-0.5-0.7-1.1-0.7-1.7l-0.1,0C200.8,50.4,199.6,51.4,198.3,51.5 M199.6,49.4c0.4,0,0.7-0.3,0.9-0.6c0.2-0.5,0.3-0.9,0.3-1.4
			v-2.2c-0.2,0.1-0.3,0.2-0.5,0.3l-0.7,0.4c-0.3,0.2-0.5,0.5-0.7,0.8c-0.2,0.4-0.3,0.9-0.3,1.3c0,0.4,0,0.8,0.2,1.1
			C199,49.4,199.3,49.5,199.6,49.4"/>
		<path id="Caminho_347" d="M206.1,33.9l3.1-0.1v17l-3.1,0.1V33.9z"/>
		<path id="Caminho_348" d="M214.5,50.7c-0.6,0-1.1,0-1.7-0.2c-0.4-0.1-0.8-0.3-1.2-0.6c-0.3-0.3-0.6-0.6-0.8-1
			c-0.2-0.4-0.4-0.8-0.5-1.3l2-0.9c0.1,0.6,0.4,1.2,0.9,1.7c0.4,0.3,0.8,0.4,1.3,0.4c0.4,0,0.7-0.1,1-0.4c0.2-0.2,0.3-0.6,0.3-0.9
			c0-0.2,0-0.4-0.1-0.5c-0.1-0.2-0.2-0.3-0.3-0.4c-0.2-0.2-0.4-0.3-0.6-0.4c-0.3-0.1-0.6-0.3-1-0.4c-0.9-0.3-1.6-0.8-2.3-1.5
			c-0.6-0.7-0.9-1.6-0.8-2.5c0-0.5,0.1-1,0.3-1.5c0.2-0.4,0.4-0.8,0.8-1.2c0.4-0.3,0.8-0.6,1.2-0.8c0.5-0.2,1.1-0.3,1.6-0.3
			c0.5,0,1,0,1.5,0.2c0.4,0.1,0.8,0.3,1.1,0.6c0.3,0.3,0.5,0.6,0.7,1c0.2,0.4,0.3,0.8,0.4,1.2l-2,0.7c-0.1-0.5-0.3-1.1-0.7-1.5
			c-0.3-0.3-0.7-0.4-1.1-0.3c-0.3,0-0.6,0.1-0.8,0.3c-0.2,0.2-0.4,0.6-0.4,0.9c0,0.2,0,0.4,0.1,0.6c0.1,0.2,0.2,0.3,0.3,0.4
			c0.2,0.2,0.4,0.3,0.6,0.4c0.2,0.1,0.5,0.3,0.9,0.4c0.5,0.2,1,0.5,1.4,0.7c0.4,0.2,0.7,0.4,1,0.7c0.3,0.3,0.5,0.6,0.6,1
			c0.5,1.5,0.2,3.1-0.9,4.3C216.7,50.3,215.6,50.7,214.5,50.7"/>
	</g>
</g>
</svg>
